<svg width="490" height="695" fill="none" xmlns="http://www.w3.org/2000/svg"><path fill-rule="evenodd" clip-rule="evenodd" d="M127.459 13.731h334.993c7.583 0 13.73 6.148 13.73 13.731v50.805H113.729V27.462c0-7.583 6.147-13.731 13.73-13.731zM100 91.998V27.462C100 12.295 112.294 0 127.459 0h334.993c15.165 0 27.459 12.295 27.459 27.462V667.326c0 15.167-12.294 27.462-27.459 27.462H127.459c-15.165 0-27.459-12.295-27.459-27.462V380h13.729v198.074h362.453V91.998H113.729V154H100V91.998zm13.729 575.328v-75.521h362.453v75.521c0 7.583-6.147 13.731-13.73 13.731H127.459c-7.583 0-13.73-6.148-13.73-13.731zm134.547-628.88a6.865 6.865 0 000 13.732h93.359a6.865 6.865 0 000-13.731h-93.359zm46.679 609.656c7.583 0 13.73-6.147 13.73-13.73 0-7.584-6.147-13.731-13.73-13.731-7.582 0-13.729 6.147-13.729 13.731 0 7.583 6.147 13.73 13.729 13.73zm0 13.731c15.165 0 27.459-12.295 27.459-27.461 0-15.167-12.294-27.463-27.459-27.463s-27.458 12.296-27.458 27.463c0 15.166 12.293 27.461 27.458 27.461z" fill="url(#paint0_linear)"/><path d="M432.624 423.418l-135.299-36.254a3.002 3.002 0 00-3.676 2.123l-28.485 106.306a3.002 3.002 0 002.123 3.676l135.298 36.253a3 3 0 003.676-2.122l28.485-106.307a3 3 0 00-2.122-3.675zM401.24 528.947l-129.501-34.7 26.931-100.508 129.501 34.7-26.931 100.508z" fill="#ED1B24" stroke="#ED1B24"/><path d="M318.975 451.328c7.686 2.059 15.613-2.517 17.672-10.201 2.06-7.689-2.516-15.616-10.203-17.675-7.686-2.06-15.613 2.516-17.672 10.203-2.06 7.686 2.517 15.613 10.203 17.673zm5.916-22.078c4.488 1.202 7.161 5.835 5.959 10.321-1.202 4.485-5.833 7.161-10.321 5.958-4.488-1.202-7.162-5.833-5.96-10.318 1.202-4.486 5.834-7.164 10.322-5.961zM287.774 488.447h0l48.291-23.93 17.987 31.151a2.997 2.997 0 004.099 1.098 2.998 2.998 0 001.098-4.099l-8.263-14.312 27.866-17.82 20.255 31.808h0a3.003 3.003 0 004.145.918 3 3 0 00.917-4.145l-21.871-34.344v-.001a3.081 3.081 0 00-1.873-1.316h0l-.011-.002a3.007 3.007 0 00-2.264.403h0l-30.166 19.295-8.128-14.077v-.001a3.003 3.003 0 00-3.931-1.189h0l-50.814 25.183a3.002 3.002 0 00-1.357 4.023h0a2.996 2.996 0 004.02 1.357zM237.386 275.82l-90.079 68.215a2.516 2.516 0 00-.487 3.527l53.597 70.777a2.518 2.518 0 003.528.487l90.079-68.215a2.516 2.516 0 00.487-3.527l-53.597-70.777a2.518 2.518 0 00-3.528-.487zm51.591 72.296l-86.065 65.176-50.558-66.763 86.065-65.175 50.558 66.762z" fill="#ED1B24" stroke="#ED1B24"/><path d="M199.006 362.171c5.16-3.908 6.179-11.283 2.272-16.441-3.909-5.162-11.283-6.18-16.443-2.273-5.16 3.908-6.179 11.283-2.271 16.443 3.907 5.16 11.282 6.178 16.442 2.271zm-11.131-14.699c2.945-2.231 7.158-1.648 9.388 1.296 2.229 2.944 1.648 7.158-1.297 9.388-2.946 2.231-7.158 1.649-9.387-1.295s-1.65-7.159 1.296-9.389zM207.233 400.363h.001l8.652-42.514 28.654 3.956a2.516 2.516 0 002.839-2.149 2.516 2.516 0 00-2.15-2.838l-13.114-1.812 2.431-26.381 30.19 2.841h0a2.52 2.52 0 002.742-2.272 2.516 2.516 0 00-2.273-2.742l-32.701-3.077h-.001a2.582 2.582 0 00-1.834.562h0l-.009.007a2.522 2.522 0 00-.899 1.707h0l-2.639 28.664-12.889-1.78h0a2.52 2.52 0 00-2.812 1.991h0l-9.122 44.83a2.519 2.519 0 001.965 2.971h0a2.512 2.512 0 002.023-.461c.47-.355.819-.879.946-1.503zM93.258 209.258l-23.32 78.435a1.961 1.961 0 001.32 2.439l61.628 18.323a1.96 1.96 0 002.438-1.321l23.321-78.435a1.962 1.962 0 00-1.321-2.439l-61.627-18.323a1.961 1.961 0 00-2.44 1.321zm61.068 20.203l-22.202 74.675-57.868-17.205 22.203-74.675 57.867 17.205z" fill="#ED1B24" stroke="#ED1B24"/><path d="M108.149 276.188c1.358-4.566-1.251-9.383-5.816-10.741-4.567-1.358-9.385 1.252-10.742 5.818-1.358 4.566 1.251 9.383 5.817 10.741 4.566 1.357 9.384-1.252 10.741-5.818zm-12.799-3.805a4.721 4.721 0 015.864-3.176 4.72 4.72 0 013.175 5.863 4.719 4.719 0 01-5.861 3.176 4.722 4.722 0 01-3.178-5.863zM129.32 294.852h0l-13.126-28.404 18.306-9.916a1.96 1.96 0 00.79-2.658 1.959 1.959 0 00-2.658-.79l-8.315 4.503-9.753-16.207 18.718-11.216h0a1.962 1.962 0 00-2.018-3.364l-20.403 12.226h0l-.001.001c-.452.271-.76.711-.892 1.196h0l-.002.011a1.958 1.958 0 00.223 1.485v.001l10.676 17.736-8.159 4.419h0a1.963 1.963 0 00-.847 2.547h0l13.899 30.074s0 0 0 0a1.962 1.962 0 002.604.958h0a1.954 1.954 0 001.057-1.222c.131-.44.109-.93-.099-1.38zM88.754 151.534l-54.647-26.51c-.748-.363-1.7-.129-2.077.65l-19.047 39.262c-.378.78.026 1.671.775 2.034l54.647 26.51c.748.363 1.698.129 2.076-.65l19.047-39.262c.378-.78-.026-1.671-.774-2.034zm-20.473 38.57l-51.796-25.127L34.23 128.4l51.796 25.126-17.745 36.578z" fill="#ED1B24" stroke="#ED1B24"/><path d="M38.724 152.778c3.207 1.556 7.046.462 8.513-2.563 1.468-3.027-.048-6.72-3.255-8.275-3.206-1.556-7.045-.461-8.513 2.565-1.468 3.025.049 6.718 3.255 8.273zm3.956-8.154c1.71.83 2.42 2.737 1.706 4.206-.713 1.47-2.649 2.094-4.36 1.264-1.71-.83-2.419-2.736-1.706-4.205.713-1.47 2.65-2.095 4.36-1.265zM23.291 164.584h0l21.719-4.997 5.435 13.67a1.655 1.655 0 001.987.964 1.43 1.43 0 00.934-1.925l-2.417-6.08 12.385-4.303 6.333 14.124h0a1.658 1.658 0 002.025.882 1.433 1.433 0 00.844-1.968l-6.948-15.496v-.001a1.68 1.68 0 00-.837-.823h0l-.009-.005a1.634 1.634 0 00-1.181-.052h0l-13.75 4.779-2.398-6.033v-.001a1.66 1.66 0 00-1.892-.989h0l-23.092 5.314a1.434 1.434 0 00-1.063 1.859h0c.142.437.464.769.844.954.322.156.704.214 1.081.127zM33.011 45.214L1.214 77.011c-.478.478-.56 1.282-.048 1.794L24.01 101.65c.512.512 1.316.43 1.794-.048l31.797-31.797c.478-.478.56-1.283.048-1.794L34.805 45.166c-.512-.512-1.316-.43-1.794.048zm21.924 23.767L24.98 98.935l-21.1-21.1 29.954-29.954 21.1 21.1z" fill="#ED1B24" stroke="#ED1B24"/><path d="M21.932 80.695c1.909-1.908 2.09-4.941.272-6.76-1.82-1.82-4.853-1.638-6.762.27-1.908 1.909-2.09 4.942-.27 6.761 1.819 1.819 4.852 1.638 6.76-.27zm-4.744-4.744c.953-.953 2.375-.97 3.172-.174.797.797.78 2.22-.173 3.173-.953.953-2.375.97-3.172.174-.797-.797-.78-2.22.173-3.173zM26.485 94.276h0a1.345 1.345 0 01-.389.804 1.335 1.335 0 01-.965.396h0a1.191 1.191 0 01-1.17-1.337s0 0 0 0l1.883-17.442h0a1.36 1.36 0 011.274-1.2h0l4.678-.209-.008-10.652h0c0-.335.133-.657.357-.902l.008-.007h0c.218-.228.521-.394.86-.425h.001L45.54 62.2s0 0 0 0h0l.044.498a.69.69 0 01.769.698.857.857 0 01-.77.835L26.485 94.276zm0 0l1.76-16.293-1.76 16.293z" fill="#ED1B24" stroke="#ED1B24"/><defs><linearGradient id="paint0_linear" x1="417.252" y1="64.687" x2="-80.697" y2="548.046" gradientUnits="userSpaceOnUse"><stop stop-color="#A91D1C"/><stop offset="1" stop-color="#ED1B24"/></linearGradient></defs></svg>